HIERARCHY
ROOT Hips
{
	OFFSET 0.000000 87.230942 0.000000
	CHANNELS 6 Xposition Yposition Zposition Xrotation Yrotation Zrotation
	JOINT Pelvis
	{
		OFFSET 0.000000 0.000000 0.000000
		CHANNELS 3 Xrotation Yrotation Zrotation
		JOINT LeftUpLeg
		{
			OFFSET 12.017000 -9.376404 -2.439400
			CHANNELS 3 Xrotation Yrotation Zrotation
			JOINT LeftLeg
			{
				OFFSET -0.007312 -32.846973 2.110600
				CHANNELS 3 Xrotation Yrotation Zrotation
				JOINT LeftFoot
				{
					OFFSET 0.007312 -32.065170 -0.570400
					CHANNELS 3 Xrotation Yrotation Zrotation
					JOINT LeftToeBase
					{
						OFFSET 0.728300 -11.045900 13.180700
						CHANNELS 3 Xrotation Yrotation Zrotation
						End Site
						{
							OFFSET 0.000000 17.212589 0.000000
						}
					}
				}
				JOINT LeftPantLeg
				{
					OFFSET 0.002788 -16.709013 -3.143600
					CHANNELS 3 Xrotation Yrotation Zrotation
					End Site
					{
						OFFSET -0.605125 24.528742 0.000000
					}
				}
			}
			JOINT Left_Butt
			{
				OFFSET -6.630234 1.326584 -3.183700
				CHANNELS 3 Xrotation Yrotation Zrotation
				End Site
				{
					OFFSET -0.498041 20.188049 0.000000
				}
			}
		}
		JOINT RightUpLeg
		{
			OFFSET -11.717000 -9.376404 -2.439400
			CHANNELS 3 Xrotation Yrotation Zrotation
			JOINT RightLeg
			{
				OFFSET -0.003241 -32.846912 2.110600
				CHANNELS 3 Xrotation Yrotation Zrotation
				JOINT RightFoot
				{
					OFFSET 0.003241 -32.065136 -0.570500
					CHANNELS 3 Xrotation Yrotation Zrotation
					JOINT RightToeBase
					{
						OFFSET -0.728300 -11.045901 13.180700
						CHANNELS 3 Xrotation Yrotation Zrotation
						End Site
						{
							OFFSET 0.000000 17.212593 0.000000
						}
					}
				}
				JOINT RightPantLeg
				{
					OFFSET 0.008142 -16.708982 -3.143700
					CHANNELS 3 Xrotation Yrotation Zrotation
					End Site
					{
						OFFSET 0.605088 24.528715 0.000000
					}
				}
			}
			JOINT Right_Butt
			{
				OFFSET 6.630732 1.326584 -3.183700
				CHANNELS 3 Xrotation Yrotation Zrotation
				End Site
				{
					OFFSET 0.498015 20.188240 0.000000
				}
			}
		}
	}
	JOINT Spine
	{
		OFFSET -0.062400 7.848404 3.918300
		CHANNELS 3 Xrotation Yrotation Zrotation
		JOINT Spine1
		{
			OFFSET -0.072800 11.422302 0.713400
			CHANNELS 3 Xrotation Yrotation Zrotation
			JOINT Spine2
			{
				OFFSET -0.083200 13.054001 -1.931600
				CHANNELS 3 Xrotation Yrotation Zrotation
				JOINT Neck
				{
					OFFSET -0.092200 14.121796 -5.138800
					CHANNELS 3 Xrotation Yrotation Zrotation
					JOINT Head
					{
						OFFSET 0.000200 10.447403 -0.842000
						CHANNELS 3 Xrotation Yrotation Zrotation
						JOINT Visor
						{
							OFFSET 0.457100 25.671204 16.550400
							CHANNELS 3 Xrotation Yrotation Zrotation
							End Site
							{
								OFFSET 0.000000 26.061493 0.000000
							}
						}
						JOINT HairMidA
						{
							OFFSET 0.459400 31.585403 8.437400
							CHANNELS 3 Xrotation Yrotation Zrotation
							End Site
							{
								OFFSET 0.000000 26.061493 0.000000
							}
						}
						JOINT HairMidB
						{
							OFFSET 0.464000 33.309204 -8.389700
							CHANNELS 3 Xrotation Yrotation Zrotation
							End Site
							{
								OFFSET 0.000000 26.061493 0.000000
							}
						}
						JOINT HairMidC
						{
							OFFSET 0.466600 27.991196 -17.375099
							CHANNELS 3 Xrotation Yrotation Zrotation
							End Site
							{
								OFFSET 0.000000 26.061493 0.000000
							}
						}
						JOINT HairMidD
						{
							OFFSET 0.467700 17.888092 -21.169500
							CHANNELS 3 Xrotation Yrotation Zrotation
							End Site
							{
								OFFSET 0.000000 26.061493 0.000000
							}
						}
						JOINT HairMidE
						{
							OFFSET 5.325700 3.514603 -14.369699
							CHANNELS 3 Xrotation Yrotation Zrotation
							End Site
							{
								OFFSET 0.000000 26.061493 0.000000
							}
						}
						JOINT HairMidF
						{
							OFFSET -4.394100 3.514603 -14.372400
							CHANNELS 3 Xrotation Yrotation Zrotation
							End Site
							{
								OFFSET 0.000000 26.061493 0.000000
							}
						}
						JOINT HairLeftA
						{
							OFFSET 15.319900 25.746506 2.623300
							CHANNELS 3 Xrotation Yrotation Zrotation
							End Site
							{
								OFFSET 0.000000 26.061493 0.000000
							}
						}
						JOINT HairLeftB
						{
							OFFSET 12.619500 29.289398 -8.731499
							CHANNELS 3 Xrotation Yrotation Zrotation
							End Site
							{
								OFFSET 0.000000 26.061493 0.000000
							}
						}
						JOINT HairLeftC
						{
							OFFSET 15.714800 15.959900 2.909800
							CHANNELS 3 Xrotation Yrotation Zrotation
							End Site
							{
								OFFSET 0.000000 26.061493 0.000000
							}
						}
						JOINT HairLeftD
						{
							OFFSET 16.101700 18.437408 -7.553200
							CHANNELS 3 Xrotation Yrotation Zrotation
							End Site
							{
								OFFSET 0.000000 26.061493 0.000000
							}
						}
						JOINT HairLeftE
						{
							OFFSET 9.731900 17.915009 -18.316799
							CHANNELS 3 Xrotation Yrotation Zrotation
							End Site
							{
								OFFSET 0.000000 26.061493 0.000000
							}
						}
						JOINT HairLeftF
						{
							OFFSET 11.204300 4.953598 -9.668100
							CHANNELS 3 Xrotation Yrotation Zrotation
							End Site
							{
								OFFSET 0.000000 26.061493 0.000000
							}
						}
						JOINT HairRightA
						{
							OFFSET -14.397900 25.746307 2.615100
							CHANNELS 3 Xrotation Yrotation Zrotation
							End Site
							{
								OFFSET 0.000000 26.061493 0.000000
							}
						}
						JOINT HairRightB
						{
							OFFSET -11.691200 29.289200 -8.738199
							CHANNELS 3 Xrotation Yrotation Zrotation
							End Site
							{
								OFFSET 0.000000 26.061493 0.000000
							}
						}
						JOINT HairRightC
						{
							OFFSET -14.792900 15.959702 2.901400
							CHANNELS 3 Xrotation Yrotation Zrotation
							End Site
							{
								OFFSET 0.000000 26.061493 0.000000
							}
						}
						JOINT HairRightD
						{
							OFFSET -15.174000 18.437195 -7.561900
							CHANNELS 3 Xrotation Yrotation Zrotation
							End Site
							{
								OFFSET 0.000000 26.061493 0.000000
							}
						}
						JOINT HairRightE
						{
							OFFSET -8.798200 17.914902 -18.322001
							CHANNELS 3 Xrotation Yrotation Zrotation
							End Site
							{
								OFFSET 0.000000 26.061493 0.000000
							}
						}
						JOINT HairRightF
						{
							OFFSET -10.275200 4.953506 -9.674099
							CHANNELS 3 Xrotation Yrotation Zrotation
							End Site
							{
								OFFSET 0.000000 26.061493 0.000000
							}
						}
					}
				}
				JOINT LeftShoulder
				{
					OFFSET 5.133500 7.341202 -1.867600
					CHANNELS 3 Xrotation Yrotation Zrotation
					JOINT LeftArm
					{
						OFFSET 8.072663 0.936867 -2.176600
						CHANNELS 3 Xrotation Yrotation Zrotation
						JOINT LeftForeArm
						{
							OFFSET 31.271999 0.000000 0.000000
							CHANNELS 3 Xrotation Yrotation Zrotation
							JOINT LeftHand
							{
								OFFSET 31.771030 0.000000 0.000000
								CHANNELS 3 Xrotation Yrotation Zrotation
								JOINT LeftHandThumb1
								{
									OFFSET 2.886520 -2.557846 4.416640
									CHANNELS 3 Xrotation Yrotation Zrotation
									JOINT LeftHandThumb2
									{
										OFFSET 2.371025 -1.368912 1.368911
										CHANNELS 3 Xrotation Yrotation Zrotation
										JOINT LeftHandThumb3
										{
											OFFSET 2.243378 -1.295212 1.295213
											CHANNELS 3 Xrotation Yrotation Zrotation
											End Site
											{
												OFFSET -0.332611 2.876945 0.020015
											}
										}
									}
								}
								JOINT LeftHandIndex1
								{
									OFFSET 8.568985 -0.641945 3.119977
									CHANNELS 3 Xrotation Yrotation Zrotation
									JOINT LeftHandIndex2
									{
										OFFSET 3.348503 0.000000 0.000000
										CHANNELS 3 Xrotation Yrotation Zrotation
										JOINT LeftHandIndex3
										{
											OFFSET 3.314552 0.000000 0.000000
											CHANNELS 3 Xrotation Yrotation Zrotation
											End Site
											{
												OFFSET -1.032898 3.075485 0.678796
											}
										}
									}
								}
								JOINT LeftHandMiddle1
								{
									OFFSET 8.124603 0.000000 0.000000
									CHANNELS 3 Xrotation Yrotation Zrotation
									JOINT LeftHandMiddle2
									{
										OFFSET 4.166275 0.000000 0.000000
										CHANNELS 3 Xrotation Yrotation Zrotation
										JOINT LeftHandMiddle3
										{
											OFFSET 3.018135 0.000000 0.000000
											CHANNELS 3 Xrotation Yrotation Zrotation
											End Site
											{
												OFFSET -1.032700 2.767982 0.617226
											}
										}
									}
								}
								JOINT LeftHandRing1
								{
									OFFSET 8.571686 -0.031357 -2.884048
									CHANNELS 3 Xrotation Yrotation Zrotation
									JOINT LeftHandRing2
									{
										OFFSET 3.671181 0.000000 0.000000
										CHANNELS 3 Xrotation Yrotation Zrotation
										JOINT LeftHandRing3
										{
											OFFSET 2.728851 0.000000 0.000000
											CHANNELS 3 Xrotation Yrotation Zrotation
											End Site
											{
												OFFSET -0.815796 2.539223 0.577389
											}
										}
									}
								}
								JOINT LeftHandPinky1
								{
									OFFSET 7.854515 -0.675232 -5.213020
									CHANNELS 3 Xrotation Yrotation Zrotation
									JOINT LeftHandPinky2
									{
										OFFSET 3.068596 0.000000 0.000000
										CHANNELS 3 Xrotation Yrotation Zrotation
										JOINT LeftHandPinky3
										{
											OFFSET 2.396042 0.000000 0.000000
											CHANNELS 3 Xrotation Yrotation Zrotation
											End Site
											{
												OFFSET -0.524597 2.267998 0.567429
											}
										}
									}
								}
							}
							JOINT LeftSleeve
							{
								OFFSET 19.684509 -0.200119 0.476146
								CHANNELS 3 Xrotation Yrotation Zrotation
								End Site
								{
									OFFSET -0.031017 25.731133 -0.002868
								}
							}
						}
					}
				}
				JOINT RightShoulder
				{
					OFFSET -4.395900 7.341202 -1.870200
					CHANNELS 3 Xrotation Yrotation Zrotation
					JOINT RightArm
					{
						OFFSET -8.071453 0.936867 -2.181100
						CHANNELS 3 Xrotation Yrotation Zrotation
						JOINT RightForeArm
						{
							OFFSET -31.272011 0.000000 0.000000
							CHANNELS 3 Xrotation Yrotation Zrotation
							JOINT RightHand
							{
								OFFSET -31.771019 0.000000 0.000000
								CHANNELS 3 Xrotation Yrotation Zrotation
								JOINT RightHandThumb1
								{
									OFFSET -2.886520 -2.557808 4.416626
									CHANNELS 3 Xrotation Yrotation Zrotation
									JOINT RightHandThumb2
									{
										OFFSET -2.371056 -1.368927 1.368928
										CHANNELS 3 Xrotation Yrotation Zrotation
										JOINT RightHandThumb3
										{
											OFFSET -2.243362 -1.295204 1.295206
											CHANNELS 3 Xrotation Yrotation Zrotation
											End Site
											{
												OFFSET 0.332642 2.876938 0.020047
											}
										}
									}
								}
								JOINT RightHandIndex1
								{
									OFFSET -8.568993 -0.641953 3.120017
									CHANNELS 3 Xrotation Yrotation Zrotation
									JOINT RightHandIndex2
									{
										OFFSET -3.348518 0.000000 0.000000
										CHANNELS 3 Xrotation Yrotation Zrotation
										JOINT RightHandIndex3
										{
											OFFSET -3.314552 0.000000 0.000000
											CHANNELS 3 Xrotation Yrotation Zrotation
											End Site
											{
												OFFSET 1.032898 3.075478 0.678804
											}
										}
									}
								}
								JOINT RightHandMiddle1
								{
									OFFSET -8.124588 0.000000 0.000000
									CHANNELS 3 Xrotation Yrotation Zrotation
									JOINT RightHandMiddle2
									{
										OFFSET -4.166275 0.000000 0.000000
										CHANNELS 3 Xrotation Yrotation Zrotation
										JOINT RightHandMiddle3
										{
											OFFSET -3.018097 0.000000 0.000000
											CHANNELS 3 Xrotation Yrotation Zrotation
											End Site
											{
												OFFSET 1.032700 2.767937 0.617197
											}
										}
									}
								}
								JOINT RightHandRing1
								{
									OFFSET -8.571747 -0.031349 -2.884061
									CHANNELS 3 Xrotation Yrotation Zrotation
									JOINT RightHandRing2
									{
										OFFSET -3.671204 0.000000 0.000000
										CHANNELS 3 Xrotation Yrotation Zrotation
										JOINT RightHandRing3
										{
											OFFSET -2.728874 0.000000 0.000000
											CHANNELS 3 Xrotation Yrotation Zrotation
											End Site
											{
												OFFSET 0.815804 2.539261 0.577413
											}
										}
									}
								}
								JOINT RightHandPinky1
								{
									OFFSET -7.854561 -0.675247 -5.212970
									CHANNELS 3 Xrotation Yrotation Zrotation
									JOINT RightHandPinky2
									{
										OFFSET -3.068550 0.000000 0.000000
										CHANNELS 3 Xrotation Yrotation Zrotation
										JOINT RightHandPinky3
										{
											OFFSET -2.395981 0.000000 0.000000
											CHANNELS 3 Xrotation Yrotation Zrotation
											End Site
											{
												OFFSET 0.524605 2.267952 0.567413
											}
										}
									}
								}
							}
							JOINT RightSleeve
							{
								OFFSET -19.684753 -0.200165 0.476065
								CHANNELS 3 Xrotation Yrotation Zrotation
								End Site
								{
									OFFSET 0.031342 25.731255 -0.002917
								}
							}
						}
					}
				}
				JOINT Hood
				{
					OFFSET 0.369700 14.447800 -5.317800
					CHANNELS 3 Xrotation Yrotation Zrotation
					JOINT Hood1
					{
						OFFSET 0.001700 -5.553802 -5.895100
						CHANNELS 3 Xrotation Yrotation Zrotation
						JOINT Hood2
						{
							OFFSET -0.000200 -8.380501 0.763600
							CHANNELS 3 Xrotation Yrotation Zrotation
							End Site
							{
								OFFSET 0.000000 8.415215 0.000000
							}
						}
					}
				}
				JOINT Left_Breast
				{
					OFFSET 5.682500 3.120102 3.188800
					CHANNELS 3 Xrotation Yrotation Zrotation
					End Site
					{
						OFFSET 0.000000 10.528564 0.000000
					}
				}
				JOINT Right_Breast
				{
					OFFSET -4.947600 3.120102 3.185900
					CHANNELS 3 Xrotation Yrotation Zrotation
					End Site
					{
						OFFSET 0.000000 10.528564 0.000000
					}
				}
				JOINT Whistle
				{
					OFFSET 0.368200 11.471298 0.095400
					CHANNELS 3 Xrotation Yrotation Zrotation
					JOINT Whistle1
					{
						OFFSET -0.002000 -6.349899 7.479800
						CHANNELS 3 Xrotation Yrotation Zrotation
						JOINT Whistle2
						{
							OFFSET -0.001300 -8.217598 4.717600
							CHANNELS 3 Xrotation Yrotation Zrotation
							End Site
							{
								OFFSET 0.000000 9.475479 0.000000
							}
						}
					}
				}
			}
		}
		JOINT Belly
		{
			OFFSET 0.212400 1.593002 3.163700
			CHANNELS 3 Xrotation Yrotation Zrotation
			End Site
			{
				OFFSET 0.000000 7.496635 0.000000
			}
		}
	}
	JOINT FitGrandmaFacialAnim_Joint
	{
		OFFSET 1.150000 -86.211197 -1.220100
		CHANNELS 3 Xrotation Yrotation Zrotation
		End Site
		{
			OFFSET 0.000000 31.666618 0.000000
		}
	}
}
MOTION
Frames: 4
Frame Time: 0.016667
0.342634 49.931801 -12.678589 35.860436 -0.350455 2.185676 -0.000002 0.000000 -0.000000 -89.697077 -3.013697 32.759452 122.414940 3.406113 -0.125731 -41.688804 -15.012781 -20.298865 0.000001 0.000001 -0.000001 0.000001 -0.000000 -0.000001 -0.000000 0.000001 0.000000 -98.317848 -8.944348 -11.425879 128.902936 7.093659 -0.968969 -36.272286 3.879284 -14.063862 0.000001 -0.000000 0.000000 -0.000000 -0.000001 0.000003 -0.000001 -0.000000 -0.000000 11.084080 0.466865 -2.123318 22.176817 0.436128 -4.312043 22.176799 0.436130 -4.312044 -24.273830 -2.101650 -0.458651 -32.969890 -5.781656 3.191219 0.000002 -0.000000 -0.000000 0.000002 -0.000000 -0.000000 0.000002 -0.000000 -0.000000 0.000002 -0.000000 -0.000000 0.000002 -0.000000 -0.000000 0.000002 -0.000000 -0.000000 0.000002 -0.000000 -0.000000 0.000002 -0.000000 -0.000000 0.000002 -0.000000 -0.000000 0.000002 -0.000000 -0.000000 0.000002 -0.000000 -0.000000 0.000002 -0.000000 -0.000000 0.000002 -0.000000 -0.000000 0.000002 -0.000000 -0.000000 0.000002 -0.000000 -0.000000 0.000002 -0.000000 -0.000000 0.000002 -0.000000 -0.000000 0.000002 -0.000000 -0.000000 0.000002 -0.000000 -0.000000 0.640948 -3.294367 -0.953793 -15.835100 -34.689957 -16.373890 4.581057 -102.085291 2.759808 44.263294 29.883570 20.699378 11.125180 -10.607989 5.635058 13.047543 13.035010 -0.568268 -0.000001 0.000001 -0.000004 2.762765 -9.722650 -4.298506 -0.734991 0.012657 -24.937169 0.000007 -0.000004 0.000002 0.691162 0.688887 -10.668321 -1.829430 -2.017382 -30.196038 -0.000000 -0.000003 -0.000000 0.170510 9.516326 -23.800774 -0.026544 -3.190970 -36.374811 0.000001 -0.000000 0.000000 0.671097 29.060833 -33.488117 0.187186 -6.380956 -42.445562 -0.000001 0.000000 -0.000002 0.000002 -0.000001 0.000001 5.833048 29.728002 10.839906 -38.904337 17.802014 21.911281 10.180127 60.700349 -18.967886 39.144900 -25.749562 -58.258092 -28.903096 10.876033 -5.700009 1.644014 -0.336614 -1.627245 0.000000 -0.000000 -0.000000 -1.509186 6.134608 4.269185 0.284811 -2.247847 5.347508 -0.000003 -0.000000 0.000001 -0.686668 -1.935907 4.591088 -0.718849 0.493042 15.506162 -0.000001 -0.000001 -0.000002 2.037162 -12.730989 11.026368 0.036384 2.329718 17.761661 -0.000000 0.000000 -0.000003 6.528007 -28.103848 17.554848 -0.488525 6.557327 19.904215 -0.000001 0.000001 -0.000001 -0.000001 -0.000001 0.000001 -0.000000 -0.000000 0.000000 -0.000000 -0.000000 0.000000 -0.000000 -0.000000 0.000000 -0.000000 -0.000000 0.000000 -0.000000 -0.000000 0.000000 -0.000000 -0.000000 0.000000 -0.000000 -0.000000 0.000000 -0.000000 -0.000000 0.000000 0.000003 -0.000000 -0.000000 -0.000002 0.000000 -0.000000 
0.316945 48.570793 -12.691406 37.257668 1.203691 1.946033 -0.000000 -0.000000 -0.000000 -86.623376 -3.185772 35.505994 122.701289 1.469576 -0.196212 -45.505148 -13.434517 -23.362355 -0.000000 0.000001 -0.000001 0.000001 0.000002 -0.000002 -0.000001 0.000002 0.000000 -101.000978 -7.207680 -10.566921 131.555768 5.607560 -0.519347 -36.779175 2.949839 -12.107759 0.000002 0.000000 0.000000 -0.000002 0.000001 -0.000001 0.000002 -0.000001 0.000000 10.522486 0.407273 -1.963902 21.050933 0.321395 -3.994276 21.050926 0.321396 -3.994270 -21.738766 -2.217308 -0.825595 -34.315656 -6.604940 3.109562 0.000001 -0.000000 0.000000 0.000001 -0.000000 0.000000 0.000001 -0.000000 0.000000 0.000001 -0.000000 0.000000 0.000001 -0.000000 0.000000 0.000001 -0.000000 0.000000 0.000001 -0.000000 0.000000 0.000001 -0.000000 0.000000 0.000001 -0.000000 0.000000 0.000001 -0.000000 0.000000 0.000001 -0.000000 0.000000 0.000001 -0.000000 0.000000 0.000001 -0.000000 0.000000 0.000001 -0.000000 0.000000 0.000001 -0.000000 0.000000 0.000001 -0.000000 0.000000 0.000001 -0.000000 0.000000 0.000001 -0.000000 0.000000 0.000001 -0.000000 0.000000 0.342997 -2.949975 -1.792635 -16.403956 -37.051252 -18.318924 2.482794 -100.497580 0.139110 47.566377 27.306019 17.670604 11.188541 -11.111371 6.012797 11.620610 14.042183 -0.106119 0.000002 0.000002 -0.000001 3.446698 -9.799938 -1.845112 -0.760093 -0.016592 -25.262916 0.000001 -0.000006 0.000003 0.747677 0.207622 -8.580252 -1.876523 -2.032482 -30.535146 0.000000 0.000001 -0.000001 0.085828 9.613130 -22.173787 -0.014830 -3.214861 -36.633829 0.000001 0.000000 0.000002 -0.053586 29.550520 -31.903380 0.218721 -6.412755 -42.751500 -0.000001 -0.000001 0.000001 -0.000002 0.000002 -0.000000 5.774373 29.321384 12.382902 -39.766119 19.774407 22.445573 8.302423 57.691637 -16.019546 40.345258 -23.597494 -59.666238 -31.298160 12.346698 -7.537885 1.803070 -0.055169 -1.277180 -0.000000 -0.000000 -0.000002 -1.571555 6.221598 2.837440 0.274708 -2.142563 6.406118 -0.000003 0.000001 -0.000000 -0.726564 -1.842124 4.353590 -0.734665 0.515549 15.825680 0.000000 0.000000 -0.000001 2.017706 -12.871193 10.562709 0.036070 2.354626 18.021447 -0.000001 -0.000001 -0.000001 6.575654 -28.588202 17.176295 -0.497804 6.579905 20.205325 -0.000003 0.000002 0.000001 0.000000 -0.000000 0.000000 -0.000000 0.000000 0.000001 -0.000000 0.000000 0.000001 -0.000000 0.000000 0.000001 -0.000000 0.000000 0.000001 -0.000000 0.000000 0.000001 -0.000000 0.000000 0.000001 0.000000 0.000000 -0.000000 0.000000 0.000000 -0.000000 -0.000002 -0.000000 0.000000 -0.000000 -0.000000 -0.000000 
0.299218 47.348015 -12.698460 38.521191 2.584143 1.694735 0.000000 -0.000000 -0.000000 -85.561636 -3.654101 37.318286 123.089544 0.016909 -0.283883 -47.579791 -13.012594 -25.226897 0.000001 0.000001 -0.000002 -0.000002 -0.000001 0.000002 -0.000004 -0.000000 -0.000003 -103.331220 -5.948392 -9.847958 133.893646 4.300822 -0.259224 -37.466951 2.116046 -10.436728 0.000001 -0.000000 0.000000 0.000000 0.000001 0.000000 -0.000002 0.000000 0.000001 9.881723 0.358086 -1.767608 19.767512 0.228246 -3.621574 19.767500 0.228246 -3.621571 -19.301413 -2.327294 -1.169201 -35.559737 -7.352562 3.025418 0.000001 0.000000 0.000000 0.000001 0.000000 0.000000 0.000001 0.000000 0.000000 0.000001 0.000000 0.000000 0.000001 0.000000 0.000000 0.000001 0.000000 0.000000 0.000001 0.000000 0.000000 0.000001 0.000000 0.000000 0.000001 0.000000 0.000000 0.000001 0.000000 0.000000 0.000001 0.000000 0.000000 0.000001 0.000000 0.000000 0.000001 0.000000 0.000000 0.000001 0.000000 0.000000 0.000001 0.000000 0.000000 0.000001 0.000000 0.000000 0.000001 0.000000 0.000000 0.000001 0.000000 0.000000 0.000001 0.000000 0.000000 0.020291 -2.572769 -2.855808 -17.018357 -39.190471 -20.988090 0.982416 -97.925098 -1.973715 50.723502 23.806810 15.248143 11.263539 -11.681014 6.443936 9.567420 15.252096 0.466262 0.000002 -0.000002 -0.000002 4.242357 -9.839373 0.880833 -0.788973 -0.049308 -25.632418 0.000002 -0.000004 0.000003 0.850834 -0.260226 -6.350887 -1.929588 -2.048765 -30.911968 -0.000004 0.000003 0.000001 0.007484 9.769581 -20.426801 -0.002229 -3.242795 -36.940136 0.000003 0.000001 0.000001 -0.979693 29.990428 -30.003915 0.254529 -6.449643 -43.107916 -0.000001 -0.000000 -0.000000 0.000000 -0.000004 -0.000002 5.824604 28.867798 13.884147 -39.853112 20.536062 22.693078 6.574769 55.607712 -13.152820 41.209960 -21.195271 -61.261162 -33.487024 13.898135 -9.125744 2.049865 0.409610 -0.803326 0.000001 0.000002 -0.000001 -1.697771 6.426644 1.495227 0.265356 -2.026637 7.570311 -0.000001 0.000001 0.000001 -0.774794 -1.732070 4.150756 -0.747654 0.537072 16.125698 0.000001 0.000001 -0.000003 1.998249 -12.963675 10.222169 0.036654 2.380266 18.283470 0.000001 -0.000002 0.000003 6.654041 -29.138519 16.814416 -0.510103 6.601668 20.511405 -0.000003 -0.000001 0.000002 0.000001 -0.000001 0.000001 -0.000000 0.000000 -0.000001 -0.000000 0.000000 -0.000001 -0.000000 0.000000 -0.000001 -0.000000 0.000000 -0.000001 -0.000000 0.000000 -0.000001 -0.000000 0.000000 -0.000001 0.000000 0.000000 -0.000001 0.000000 0.000000 -0.000001 0.000001 0.000000 0.000000 0.000000 -0.000000 -0.000000 
0.271753 46.295845 -12.683903 39.635437 3.785819 1.454475 -0.000001 -0.000000 0.000000 -87.559146 -4.665908 37.558698 124.404205 -0.208541 -0.335289 -47.847835 -14.136749 -25.540820 0.000002 -0.000000 -0.000000 0.000002 -0.000003 -0.000000 0.000001 0.000001 -0.000002 -105.145250 -5.356853 -9.556157 135.825251 3.134057 -0.177448 -38.657658 1.363457 -9.168720 0.000001 -0.000000 0.000000 -0.000000 0.000000 -0.000001 0.000002 -0.000000 -0.000001 9.203138 0.303119 -1.534516 18.408707 0.142228 -3.175028 18.408700 0.142230 -3.175027 -17.035892 -2.424128 -1.481490 -36.678744 -8.013697 2.944157 -0.000001 0.000000 -0.000000 -0.000001 0.000000 -0.000000 -0.000001 0.000000 -0.000000 -0.000001 0.000000 -0.000000 -0.000001 0.000000 -0.000000 -0.000001 0.000000 -0.000000 -0.000001 0.000000 -0.000000 -0.000001 0.000000 -0.000000 -0.000001 0.000000 -0.000000 -0.000001 0.000000 -0.000000 -0.000001 0.000000 -0.000000 -0.000001 0.000000 -0.000000 -0.000001 0.000000 -0.000000 -0.000001 0.000000 -0.000000 -0.000001 0.000000 -0.000000 -0.000001 0.000000 -0.000000 -0.000001 0.000000 -0.000000 -0.000001 0.000000 -0.000000 -0.000001 0.000000 -0.000000 -0.284230 -2.135469 -4.160778 -17.677325 -40.741908 -24.178928 -0.080801 -94.687869 -3.562342 53.370162 19.581246 13.653760 11.343345 -12.273133 6.900005 6.708298 16.475116 1.460191 0.000002 0.000001 0.000001 5.234336 -9.820455 4.263374 -0.819172 -0.080987 -26.000240 0.000000 -0.000002 0.000000 1.074200 -0.480995 -4.034310 -1.984928 -2.064385 -31.305134 -0.000001 0.000000 -0.000003 -0.066317 10.084493 -18.359055 0.011152 -3.271434 -37.253402 0.000001 0.000000 -0.000003 -2.129133 30.421355 -27.650950 0.291433 -6.488840 -43.471241 -0.000000 -0.000001 0.000001 0.000001 -0.000001 0.000001 5.973609 28.508236 15.261349 -39.460571 20.823669 22.407583 5.371272 54.315659 -10.616652 41.903952 -19.438145 -62.692763 -34.145598 14.695652 -8.490557 2.362729 0.806167 -0.204923 0.000001 0.000002 -0.000001 -1.881066 6.920218 0.918370 0.258638 -1.909424 8.741236 -0.000001 0.000000 0.000001 -0.827272 -1.607671 4.041265 -0.757720 0.556756 16.394293 -0.000001 0.000002 -0.000003 1.986202 -12.991868 10.062145 0.038634 2.401834 18.499122 -0.000000 -0.000002 0.000001 6.755811 -29.733514 16.485430 -0.523433 6.614812 20.722044 -0.000001 0.000003 0.000001 0.000001 -0.000001 0.000003 -0.000001 0.000000 -0.000001 -0.000001 0.000000 -0.000001 -0.000001 0.000000 -0.000001 -0.000001 0.000000 -0.000001 -0.000001 0.000000 -0.000001 -0.000001 0.000000 0.000000 -0.000000 -0.000000 0.000000 -0.000000 -0.000000 0.000000 0.000002 -0.000000 0.000000 -0.000001 -0.000000 0.000000 
